<?xml version="1.0" standalone="no"?>
<!DOCTYPE svg PUBLIC "-//W3C//DTD SVG 20010904//EN"
 "http://www.w3.org/TR/2001/REC-SVG-20010904/DTD/svg10.dtd">
<svg version="1.0" xmlns="http://www.w3.org/2000/svg"
 width="512.000000pt" height="512.000000pt" viewBox="0 0 512.000000 512.000000"
 preserveAspectRatio="xMidYMid meet">
<metadata>
Created by potrace 1.14, written by Peter Selinger 2001-2017
</metadata>
<g transform="translate(0.000000,512.000000) scale(0.100000,-0.100000)"
fill="#000000" stroke="none">
<path d="M1923 4940 c-27 -11 -39 -33 -47 -85 -12 -73 -32 -112 -105 -194 -39
-46 -78 -118 -86 -161 -28 -147 3 -254 109 -375 50 -57 78 -117 81 -172 3 -67
-9 -97 -74 -181 -96 -126 -122 -180 -126 -266 -4 -76 45 -121 104 -96 31 13
40 27 48 75 11 72 26 104 84 175 33 41 72 99 86 128 34 72 41 178 18 257 -19
67 -32 89 -98 169 -67 82 -88 126 -88 190 -1 65 20 111 93 202 72 90 97 143
104 225 6 63 5 69 -19 93 -27 27 -47 31 -84 16z"/>
<path d="M2488 4933 c-21 -13 -28 -27 -33 -67 -9 -67 -35 -120 -90 -185 -91
-107 -122 -193 -111 -310 7 -80 46 -165 109 -236 63 -71 88 -126 88 -190 0
-69 -16 -105 -88 -195 -83 -104 -106 -157 -107 -241 -1 -76 10 -95 59 -104 48
-9 85 28 90 88 6 63 25 101 90 178 88 103 114 174 109 295 -3 90 -33 156 -112
253 -69 83 -90 134 -86 203 3 58 22 94 96 186 66 83 85 122 100 205 12 68 0
108 -38 126 -33 15 -44 14 -76 -6z"/>
<path d="M3080 4943 c-29 -12 -41 -33 -50 -87 -11 -68 -30 -106 -92 -180 -27
-33 -61 -82 -76 -110 -24 -46 -27 -61 -27 -156 0 -94 3 -111 27 -160 15 -30
49 -81 76 -112 65 -78 88 -123 91 -185 3 -59 -28 -138 -71 -183 -81 -86 -118
-159 -125 -250 -6 -76 10 -106 64 -116 42 -8 83 30 83 78 1 46 23 102 56 144
97 122 115 151 130 202 17 59 21 147 9 204 -12 52 -43 107 -111 192 -113 142
-110 247 12 381 71 79 104 160 106 259 1 60 -50 99 -102 79z"/>
<path d="M1559 3188 c-16 -5 -32 -22 -39 -38 l-12 -30 -473 0 -472 0 -34 -23
c-55 -37 -57 -56 -54 -422 2 -181 6 -346 9 -365 4 -19 11 -64 17 -100 34 -206
132 -478 232 -645 127 -214 268 -380 449 -531 296 -247 672 -405 1043 -441 27
-2 51 -6 53 -8 2 -2 -486 -3 -1085 -3 -598 0 -1101 -1 -1116 -1 -16 -1 -39
-12 -54 -27 -23 -23 -25 -30 -19 -87 12 -116 75 -205 188 -264 l53 -28 2185 0
2185 0 55 27 c99 49 172 148 185 252 9 66 1 91 -32 113 -24 16 -114 17 -1142
17 -624 -1 -1083 3 -1041 7 398 43 829 237 1100 495 l35 33 220 1 c243 2 326
12 457 60 315 115 553 379 639 708 29 111 36 279 14 364 -37 147 -132 266
-265 331 -89 43 -160 56 -323 55 -65 0 -121 2 -123 5 -3 2 -6 92 -7 200 -2
181 -4 198 -23 224 -11 15 -32 34 -45 40 -19 10 -316 13 -1341 13 -1274 0
-1318 1 -1318 18 0 38 -55 65 -101 50z m3106 -833 c109 -27 177 -117 176 -235
-1 -330 -247 -633 -571 -705 -93 -20 -253 -28 -243 -11 4 6 25 40 48 76 166
261 254 508 299 839 3 19 9 37 14 40 14 8 240 5 277 -4z"/>
</g>
</svg>
